{"title":"Honey 3 Dare To Dance 2016 Movies BRRip XviD New +Sample ~ ☻rDX☻","uid":15657086,"size":739495812,"categoryP":"video","categoryS":"movies","magnet":"?xt=urn:btih:5062e6d6e4fe019c78352c76de48dd7f6636867d&amp;dn=Honey+3+Dare+To+Dance+2016+Movies+BRRip+XviD+New+%2BSample+%7E+%E2%98%BBrDX%E2%98%BB&amp;tr=udp%3A%2F%2Ftracker.leechers-paradise.org%3A6969&amp;tr=udp%3A%2F%2Fzer0day.ch%3A1337&amp;tr=udp%3A%2F%2Fopen.demonii.com%3A1337&amp;tr=udp%3A%2F%2Ftracker.coppersurfer.tk%3A6969&amp;tr=udp%3A%2F%2Fexodus.desync.com%3A6969","seeders":0,"leechers":4,"uploader":"basicssom","files":2,"time":1472148983,"description":"----------------------------------------------------------------\r\nHoney 3 Dare To Dance 2016 English Movies BRRip XviD AAC New Source with Sample ☻rDX☻\r\n\r\nSCREEN SHOTS &amp; POSTER:\r\n  \nhttp://postimage.co.nr/2016/8/breakfast/index.htm  \nhttp://postimage.co.nr/2016/8/breakfast/1.html  \nhttp://postimage.co.nr/2016/8/breakfast/2.html  \nhttp://postimage.co.nr/2016/8/breakfast/3.html  \nhttp://postimage.co.nr/2016/8/breakfast/4.html  \nhttp://postimage.co.nr/2016/8/breakfast/5.html  \nhttp://postimage.co.nr/2016/8/breakfast/6.html  \nhttp://postimage.co.nr/2016/8/breakfast/7.html  \nhttp://postimage.co.nr/2016/8/breakfast/8.html  \nhttp://postimage.co.nr/2016/8/breakfast/9.html  \nhttp://postimage.co.nr/2016/8/breakfast/10.html\r\n\r\nFormat                                   : Matroska\r\nFormat version                           : Version 4 / Version 2\r\nFile size                                : 698 MiB\r\nDuration                                 : 1 h 36 min\r\nOverall bit rate mode                    : Constant\r\nOverall bit rate                         : 1 014 kb/s\r\nMovie name                               : Honey 3 Dare To Dance 2016 English Movies BRRip XviD AAC New Source ☻rDX☻\r\n\r\nVideo\r\nID                                       : 2\r\nFormat                                   : AVC\r\nFormat/Info                              : Advanced Video Codec\r\nFormat profile                           :   \r\nFormat settings, CABAC                   : Yes\r\nFormat settings, ReFrames                : 2 frames\r\nFormat settings, GOP                     : M=1, N=12\r\nCodec ID                                 : V_MPEG4/ISO/AVC\r\nDuration                                 : 1 h 36 min\r\nBit rate mode                            : Constant\r\nBit rate                                 : 567 kb/s\r\nWidth                                    : 720 pixels\r\nHeight                                   : 400 pixels\r\nDisplay aspect ratio                     : 16:9\r\nFrame rate mode                          : Constant\r\nFrame rate                               : 23.976 FPS\r\nColor space                              : YUV\r\nChroma subsampling                       : 4:2:0\r\nBit depth                                : 8 bits\r\nScan type                                : Progressive\r\nBits/(Pixel*Frame)                       : 0.082\r\nStream size                              : 376 MiB (54%)\r\nTitle                                    : ☻rDX☻\r\nDefault                                  : Yes\r\nForced                                   : No\r\n\r\nAudio\r\nID                                       : 1\r\nFormat                                   : AC-3\r\nFormat/Info                              : Audio Coding 3\r\nMode extension                           : CM (complete main)\r\nFormat settings, Endianness              : Big\r\nCodec ID                                 : A_AC3\r\nDuration                                 : 1 h 36 min\r\nBit rate mode                            : Constant\r\nBit rate                                 : 448 kb/s\r\nChannel(s)                               : 6 channels\r\nChannel positions                        : Front: L C R, Side: L R, LFE\r\nSampling rate                            : 48.0 kHz\r\nFrame rate                               : 31.250 FPS (1536 spf)\r\nCompression mode                         : Lossy\r\nStream size                              : 309 MiB (44%)\r\nTitle                                    : ☻rDX☻\r\nDefault                                  : Yes\r\nForced                                   : No\r\n\r\nIMDB \nhttp://www.imdb.com/title/tt4677938/","torrent":{"xt":"urn:btih:5062e6d6e4fe019c78352c76de48dd7f6636867d","amp;dn":"Honey+3+Dare+To+Dance+2016+Movies+BRRip+XviD+New+%2BSample+%7E+%E2%98%BBrDX%E2%98%BB","amp;tr":["udp%3A%2F%2Ftracker.leechers-paradise.org%3A6969","udp%3A%2F%2Fzer0day.ch%3A1337","udp%3A%2F%2Fopen.demonii.com%3A1337","udp%3A%2F%2Ftracker.coppersurfer.tk%3A6969","udp%3A%2F%2Fexodus.desync.com%3A6969"],"infoHash":"5062e6d6e4fe019c78352c76de48dd7f6636867d","infoHashBuffer":{"type":"Buffer","data":[80,98,230,214,228,254,1,156,120,53,44,118,222,72,221,127,102,54,134,125]},"announce":[],"urlList":[]}}